# xmcd CD database file
# Copyright (C) 1993-1998 Ti Kan
#
# Track frame offsets:
#  183
#  10763
#  23635
#  36920
#  48343
#  59115
#  69855
#  80505
#  92753
#  105330
#  118103
#  129518
#  142300
#  154073
#  163293
#  174763
#  185053
#  196370
#  207978
#  218193
#  230225
#  242863
#  253670
#
# Disc length: 3539 seconds
#
# Revision: 1
# Processed by: cddbd v1.4b41PL1 Copyright (c) Steve Scherf et al.
# Submitted via: CDWizzard Release:4.35
#
DISCID=500dd117
DTITLE=Gene Chandler - Duke Of Earl
DYEAR=1900
DGENRE=
TTITLE0=Duke Of Earl
TTITLE1=I Fooled You This Time
TTITLE2=Nothing Can Stop Me 
TTITLE3=You Threw A Lucky Punch
TTITLE4=Festival Of Love
TTITLE5=You Can't Hurt Me No More
TTITLE6=Nite Owl
TTITLE7=Think About Nothing
TTITLE8=Rainbow
TTITLE9=Man's Temptation
TTITLE10=Just Be True
TTITLE11=What Now
TTITLE12=Bless Our Love
TTITLE13=Tear For Tear
TTITLE14=The Big Lie
TTITLE15=Stand By Me
TTITLE16=Daddy's Home
TTITLE17=I Wake Up Crying
TTITLE18=Turn On Your Love Light
TTITLE19=Check Yourself
TTITLE20=Baby That's Love
TTITLE21=It's No Good For Me
TTITLE22=A Song Called Soul
EXTD=
EXTT0=
EXTT1=
EXTT2=
EXTT3=
EXTT4=
EXTT5=
EXTT6=
EXTT7=
EXTT8=
EXTT9=
EXTT10=
EXTT11=
EXTT12=
EXTT13=
EXTT14=
EXTT15=
EXTT16=
EXTT17=
EXTT18=
EXTT19=
EXTT20=
EXTT21=
EXTT22=
PLAYORDER=
